<svg width="150" height="150" viewBox="0 0 150 150" fill="none" xmlns="http://www.w3.org/2000/svg">
<path d="M122.095 48.4131C122.095 22.4121 101.016 1.11328 75 1.11328C48.9844 1.11328 27.9053 22.4121 27.9053 48.4131C27.9053 58.7109 33.3691 71.9971 42.1436 81.7969C50.8447 91.5088 57.3047 107.856 57.3047 120.894V126.006H92.6953V120.938C92.6953 107.9 99.1553 91.582 107.812 81.8408C116.616 71.9385 122.095 57.4658 122.095 48.4131Z" fill="#FF2400"/>
<path d="M93.2373 115.811L64.834 76.5527L87.3633 29.5898L116.543 68.6133C113.994 73.9453 110.786 78.4863 107.183 82.5586C100.386 90.9668 97.2803 98.3057 94.3359 108.545L93.2373 115.811Z" fill="#991600"/>
<path d="M73.1691 55.415H61.0549C59.2092 55.415 57.9201 53.5547 58.5939 51.8262L67.2658 29.4141C67.6613 28.4033 68.6428 27.7295 69.7268 27.7295H85.1076C87.0998 27.7295 88.3742 29.8535 87.4367 31.6113L75.4982 54.0234C75.0295 54.873 74.1359 55.415 73.1691 55.415Z" fill="#FFF8E1"/>
<path d="M68.291 75.9228L91.7285 50.874C93.4863 48.999 92.1533 45.9375 89.5898 45.9375H74.209C72.9346 45.9375 71.8066 46.7578 71.4111 47.9736L63.3545 73.0225C62.3877 76.0107 66.1523 78.2227 68.291 75.9228Z" fill="#FFF8E1"/>
<path d="M86.9531 148.887H63.0469C62.2119 148.887 61.4502 148.345 60.9961 147.451L57.7441 140.977H92.2559L89.0039 147.451C88.5498 148.345 87.7881 148.887 86.9531 148.887Z" fill="#455A64"/>
<path d="M91.6553 143.613H58.3447C55.1074 143.613 52.4707 140.991 52.4707 137.739V113.774C52.4707 110.537 55.0928 107.9 58.3447 107.9H91.6699C94.9072 107.9 97.5439 110.522 97.5439 113.774V137.754C97.5293 140.991 94.9072 143.613 91.6553 143.613Z" fill="#ECEFF1"/>
<path d="M79.0723 118.447H52.5879V113.174H79.0723C80.5225 113.174 81.709 114.36 81.709 115.811C81.709 117.275 80.5225 118.447 79.0723 118.447ZM52.5879 123.062H97.4121V128.335H52.5879V123.062ZM97.4121 138.223H72.4805C71.0303 138.223 69.8437 137.036 69.8437 135.586C69.8437 134.136 71.0303 132.949 72.4805 132.949H97.4121V138.223Z" fill="#CFD8DC"/>
</svg>
