<svg width="100" height="100" viewBox="0 0 100 100" fill="none" xmlns="http://www.w3.org/2000/svg">
<path d="M48.1249 1.25C44.082 5.48828 39.8827 12.0508 37.6952 17.5391C36.2695 21.1719 35.703 23.6914 35.6054 27.1484C35.5077 29.7656 35.5663 30.4102 35.9179 31.8945C36.6405 34.9219 38.203 37.5 39.3163 37.5C39.5507 37.5 40.4101 37.0898 41.1913 36.6016C42.7929 35.6055 44.9023 34.707 46.3866 34.375C46.9335 34.2578 47.5585 33.9648 47.7929 33.75C48.2421 33.3398 48.2421 33.2812 48.2421 27.6562C48.2421 21.7773 48.3593 20.6641 49.0234 20.3125C49.4921 20.0586 50.5077 20.0586 50.9765 20.3125C51.6405 20.6641 51.7577 21.7773 51.7577 27.6562C51.7577 33.2812 51.7577 33.3398 52.207 33.75C52.4413 33.9648 53.0468 34.2578 53.5546 34.3555C55.1366 34.7266 57.0312 35.5078 58.6718 36.5234C60.4296 37.5977 60.8398 37.6758 61.5624 37.1094C62.3241 36.5234 63.6132 33.8281 64.082 31.9141C64.4335 30.4102 64.4726 29.7852 64.3945 27.2461C64.2382 22.6758 63.3202 19.375 60.7421 14.1602C58.4374 9.47266 54.9218 4.375 51.7577 1.13281C50.8398 0.195312 50.5468 0 49.9999 0C49.4335 0 49.1405 0.195312 48.1249 1.25Z" fill="url(#paint0_linear_74_105)"/>
<path d="M16.0156 22.7929C14.2773 22.9686 11.2304 23.4569 9.41403 23.8475C6.34762 24.5116 6.07418 24.9608 7.03122 27.871C9.23825 34.5311 12.4218 40.4296 16.289 45.0585C18.3984 47.5975 18.5937 47.6561 20.7422 46.3475C24.1015 44.2968 26.7382 43.3007 29.6679 42.9686C30.6836 42.8515 31.582 42.7147 31.6601 42.6561C31.7578 42.5975 31.8359 42.3046 31.8359 42.0116C31.8359 41.5233 31.5234 41.289 28.1836 39.3554C26.1914 38.1835 24.3945 37.0507 24.1797 36.8358C23.6718 36.2694 23.7304 35.2343 24.3164 34.6679C25.2148 33.7694 25.1953 33.7499 31.7578 37.5585C33.4375 38.535 33.9843 38.6522 34.375 38.1835C34.5898 37.9296 34.5117 37.6561 34.0234 36.5624C32.6367 33.535 32.2265 31.4452 32.2265 27.3827C32.2265 24.746 32.207 24.5702 31.7968 24.16C31.3086 23.6718 29.2578 23.203 26.0742 22.8515C24.4336 22.6757 17.5586 22.6366 16.0156 22.7929Z" fill="url(#paint1_linear_74_105)"/>
<path d="M73.7304 22.8515C71.1523 23.164 68.7109 23.7109 68.2812 24.0429C67.8906 24.3554 67.8711 24.6093 67.7539 27.9687C67.6172 32.1484 67.1484 34.2968 65.8203 36.9335C65.3711 37.8124 65.5468 38.4765 66.2304 38.4765C66.4453 38.4765 68.3007 37.4999 70.3515 36.3281C72.7148 34.9804 74.2968 34.1796 74.6484 34.1796C75.957 34.1796 76.6797 35.996 75.7422 36.8945C75.4882 37.1288 73.6718 38.2617 71.6797 39.414C68.0468 41.5234 67.539 41.9726 68.2031 42.5195C68.3398 42.6367 69.2773 42.832 70.2734 42.9492C73.3593 43.3202 75.8398 44.2577 79.2382 46.3281C81.3476 47.6171 81.6015 47.5585 83.4179 45.4492C87.2461 40.996 90.7617 34.5312 92.9687 27.871C93.9257 24.9413 93.6523 24.4921 90.5468 23.8476C86.3867 22.9687 84.9414 22.8124 79.9804 22.7538C77.3047 22.7148 74.4922 22.7538 73.7304 22.8515Z" fill="url(#paint2_linear_74_105)"/>
<path d="M46.9335 37.6953C44.453 38.3398 43.0663 39.1601 41.1132 41.1133C39.8241 42.4023 39.1796 43.2226 38.7109 44.1992C36.1523 49.4531 37.1874 55.2734 41.4062 59.2383C47.578 65.0781 57.5585 63.2226 61.3476 55.5664C63.1249 51.9726 63.1249 48.0859 61.3476 44.4336C58.7499 39.0625 52.6171 36.2109 46.9335 37.6953Z" fill="url(#paint3_linear_74_105)"/>
<path d="M29.9414 46.3084C28.1836 46.4842 26.3281 47.0702 24.336 48.1053C17.4414 51.6795 10.7813 60.8788 7.14845 71.8358C6.3672 74.1795 6.34767 74.7069 7.05079 75.3709C7.46095 75.7616 10.1563 76.3866 13.4766 76.8944C16.1524 77.285 23.086 77.4413 25.8008 77.1678C33.2227 76.4061 38.7305 74.1014 42.2266 70.3319C43.4961 68.9452 44.7266 66.953 44.7266 66.2499C44.7266 65.6249 44.0039 64.9022 42.7149 64.2577C41.211 63.4959 39.7266 62.3827 38.3594 61.0155C37.5391 60.1756 37.1875 59.9608 36.6992 59.9608C36.25 59.9608 34.7852 60.703 31.5625 62.578C26.0938 65.742 25.9375 65.8202 25.293 65.8202C24.1016 65.8202 23.3594 64.0428 24.1797 63.1639C24.3945 62.9491 26.7969 61.4842 29.5313 59.9022C35.2344 56.6014 35.2539 56.5819 34.707 54.8241C34.1797 53.1249 33.9844 51.5819 33.9844 49.3163C33.9844 47.3045 33.9453 47.1092 33.5547 46.7381C33.0274 46.2499 31.8945 46.1327 29.9414 46.3084Z" fill="url(#paint4_linear_74_105)"/>
<path d="M67.6758 46.25C66.2305 46.3672 66.0742 46.6992 65.9766 49.8633C65.918 51.9531 65.7813 53.0273 65.4492 54.2578C64.7656 56.6992 64.5703 56.4844 70.4492 59.8828C73.1836 61.4648 75.6055 62.9297 75.8008 63.1641C76.6602 64.0625 75.8984 65.8203 74.6484 65.8203C74.3164 65.8203 73.0078 65.1953 71.2695 64.1992C69.7266 63.3008 67.4414 61.9922 66.1914 61.2695C63.2617 59.5703 63.0859 59.5703 61.4063 61.2305C60.0586 62.5586 58.0273 64.0039 56.8164 64.5117C56.0156 64.8437 55.2734 65.6836 55.2734 66.2695C55.2734 67.5 58.0078 70.957 60.2539 72.5586C66.6406 77.1289 78.4375 78.5937 89.9414 76.2695C92.6758 75.7227 93.0469 75.5469 93.3789 74.7266C93.5938 74.2383 93.5352 73.8867 92.8711 71.8945C89.5117 61.6406 83.2227 52.5977 76.6797 48.6328C73.8477 46.9141 70.5078 46.0156 67.6758 46.25Z" fill="url(#paint5_linear_74_105)"/>
<path d="M46.0352 70.9374C44.1406 73.4765 41.6602 75.5663 38.8477 76.9726C37.1484 77.8124 36.7188 78.2421 36.7188 79.0624C36.7188 80.8202 39.9023 87.7148 42.5586 91.6992C44.1602 94.121 47.7539 98.5742 48.8281 99.4921C49.5703 100.098 50.3516 100.137 51.0352 99.6093C52.4219 98.5156 56.6211 93.1445 58.5352 90.0195C60.8008 86.289 63.2812 80.5663 63.2812 79.0624C63.2812 78.2226 62.832 77.7929 61.1328 76.9531C58.3203 75.5468 55.2148 72.8906 53.5547 70.4492C53.0273 69.6484 52.832 69.5117 52.3828 69.5702L51.8555 69.6288L51.7578 74.2187C51.6992 76.7382 51.582 78.9648 51.4844 79.1601C51.2695 79.6288 50.7422 79.8827 50 79.8827C49.2578 79.8827 48.7305 79.6288 48.5156 79.1601C48.418 78.9648 48.3008 76.7382 48.2422 74.2187L48.1445 69.6288L47.6172 69.5702C47.168 69.5117 46.9531 69.707 46.0352 70.9374Z" fill="url(#paint6_linear_74_105)"/>
<defs>
<linearGradient id="paint0_linear_74_105" x1="49.9957" y1="37.5" x2="49.9957" y2="0" gradientUnits="userSpaceOnUse">
<stop stop-color="white"/>
<stop offset="1" stop-color="#999999"/>
</linearGradient>
<linearGradient id="paint1_linear_74_105" x1="20.5148" y1="47.1909" x2="20.5148" y2="22.695" gradientUnits="userSpaceOnUse">
<stop stop-color="white"/>
<stop offset="1" stop-color="#999999"/>
</linearGradient>
<linearGradient id="paint2_linear_74_105" x1="79.5147" y1="47.1875" x2="79.5147" y2="22.7389" gradientUnits="userSpaceOnUse">
<stop stop-color="white"/>
<stop offset="1" stop-color="#999999"/>
</linearGradient>
<linearGradient id="paint3_linear_74_105" x1="50.0031" y1="62.6736" x2="50.0031" y2="37.3045" gradientUnits="userSpaceOnUse">
<stop stop-color="white"/>
<stop offset="1" stop-color="#999999"/>
</linearGradient>
<linearGradient id="paint4_linear_74_105" x1="25.6343" y1="77.3054" x2="25.6343" y2="46.2313" gradientUnits="userSpaceOnUse">
<stop stop-color="white"/>
<stop offset="1" stop-color="#999999"/>
</linearGradient>
<linearGradient id="paint5_linear_74_105" x1="74.3819" y1="77.3594" x2="74.3819" y2="46.2133" gradientUnits="userSpaceOnUse">
<stop stop-color="white"/>
<stop offset="1" stop-color="#999999"/>
</linearGradient>
<linearGradient id="paint6_linear_74_105" x1="50" y1="99.9775" x2="50" y2="69.5583" gradientUnits="userSpaceOnUse">
<stop stop-color="white"/>
<stop offset="1" stop-color="#999999"/>
</linearGradient>
</defs>
</svg>
