<svg width="156" height="156" viewBox="0 0 156 156" fill="none" xmlns="http://www.w3.org/2000/svg">
<g clip-path="url(#clip0_68_57)">
<path d="M143.312 131.541C114.265 131.068 90.6333 107.051 90.6333 78C90.6333 48.9491 114.266 24.9321 143.313 24.4604C143.803 24.4542 144.243 24.1512 144.425 23.6943C144.606 23.2373 144.499 22.7163 144.147 22.3726C129.466 7.94571 110.054 0 89.4878 0C46.478 0 11.4878 34.9902 11.4878 78C11.4878 121.011 46.478 156 89.4878 156C110.054 156 129.466 148.054 144.147 133.626C144.498 133.282 144.606 132.761 144.425 132.306C144.242 131.849 143.803 131.547 143.312 131.541Z" fill="url(#paint0_linear_68_57)"/>
</g>
<defs>
<linearGradient id="paint0_linear_68_57" x1="77.9999" y1="156" x2="77.9999" y2="0" gradientUnits="userSpaceOnUse">
<stop stop-color="#FF2400"/>
<stop offset="1" stop-color="#991600"/>
</linearGradient>
<clipPath id="clip0_68_57">
<rect width="156" height="156" fill="white"/>
</clipPath>
</defs>
</svg>
