<svg width="101" height="151" viewBox="0 0 101 151" fill="none" xmlns="http://www.w3.org/2000/svg">
<g clip-path="url(#clip0_322_14)">
<path d="M25.0293 150.986C38.8293 150.986 50.0293 139.786 50.0293 125.986V100.986H25.0293C11.2293 100.986 0.0292969 112.186 0.0292969 125.986C0.0292969 139.786 11.2293 150.986 25.0293 150.986Z" fill="#0ACF83"/>
<path d="M0.0292969 75.9863C0.0292969 62.1863 11.2293 50.9863 25.0293 50.9863H50.0293V100.986H25.0293C11.2293 100.986 0.0292969 89.7863 0.0292969 75.9863Z" fill="#A259FF"/>
<path d="M0.0292969 25.9863C0.0292969 12.1863 11.2293 0.986328 25.0293 0.986328H50.0293V50.9863H25.0293C11.2293 50.9863 0.0292969 39.7863 0.0292969 25.9863Z" fill="#F24E1E"/>
<path d="M50.0293 0.986328H75.0293C88.8293 0.986328 100.029 12.1863 100.029 25.9863C100.029 39.7863 88.8293 50.9863 75.0293 50.9863H50.0293V0.986328Z" fill="#FF7262"/>
<path d="M100.029 75.9863C100.029 89.7863 88.8293 100.986 75.0293 100.986C61.2293 100.986 50.0293 89.7863 50.0293 75.9863C50.0293 62.1863 61.2293 50.9863 75.0293 50.9863C88.8293 50.9863 100.029 62.1863 100.029 75.9863Z" fill="#1ABCFE"/>
</g>
<defs>
<clipPath id="clip0_322_14">
<rect width="100.02" height="150" fill="white" transform="translate(0.0195312 0.986328)"/>
</clipPath>
</defs>
</svg>
