<svg width="57" height="58" viewBox="0 0 57 58" fill="none" xmlns="http://www.w3.org/2000/svg">
<path d="M23.5937 9.99609L18.6133 19.0977L9.58984 24C4.62891 26.6953 0.566406 28.9609 0.546875 29.0195C0.546875 29.0977 4.62891 31.3828 9.60937 34.0977L18.6719 39.0391L23.6133 48.082C26.3281 53.0625 28.6133 57.125 28.6719 57.125C28.7305 57.125 30.9961 53.0625 33.7109 48.082L38.6719 39.0586L47.7344 34.0977C54.8242 30.2109 56.7578 29.0781 56.5625 28.9023C56.4258 28.7656 52.4023 26.5391 47.6172 23.9414C42.832 21.3438 38.7891 19.0586 38.6328 18.8633C38.4766 18.668 36.1914 14.5469 33.5547 9.70312C30.918 4.83984 28.7305 0.875 28.6719 0.875C28.6133 0.875 26.3281 4.97656 23.5937 9.99609Z" fill="url(#paint0_linear_75_7)"/>
<defs>
<linearGradient id="paint0_linear_75_7" x1="28.5613" y1="57.125" x2="28.5613" y2="0.875" gradientUnits="userSpaceOnUse">
<stop stop-color="#FF2400"/>
<stop offset="1" stop-color="#991600"/>
</linearGradient>
</defs>
</svg>
