<svg width="57" height="58" viewBox="0 0 57 58" fill="none" xmlns="http://www.w3.org/2000/svg">
<path d="M33.4063 9.99609L38.3867 19.0977L47.4102 24C52.3711 26.6953 56.4336 28.9609 56.4531 29.0195C56.4531 29.0977 52.3711 31.3828 47.3906 34.0977L38.3281 39.0391L33.3867 48.082C30.6719 53.0625 28.3867 57.125 28.3281 57.125C28.2695 57.125 26.0039 53.0625 23.2891 48.082L18.3281 39.0586L9.26563 34.0977C2.17579 30.2109 0.242193 29.0781 0.437505 28.9023C0.574224 28.7656 4.59766 26.5391 9.38282 23.9414C14.168 21.3438 18.2109 19.0586 18.3672 18.8633C18.5234 18.668 20.8086 14.5469 23.4453 9.70312C26.082 4.83984 28.2695 0.875 28.3281 0.875C28.3867 0.875 30.6719 4.97656 33.4063 9.99609Z" fill="url(#paint0_linear_75_12)"/>
<defs>
<linearGradient id="paint0_linear_75_12" x1="28.4387" y1="57.125" x2="28.4387" y2="0.875" gradientUnits="userSpaceOnUse">
<stop stop-color="#EEEEEE"/>
<stop offset="1" stop-color="#888888"/>
</linearGradient>
</defs>
</svg>
